HIERARCHY
ROOT Hips
{
	OFFSET 0.000000 0.000000 0.000000
	CHANNELS 6 Xposition Yposition Zposition Zrotation Yrotation Xrotation 
	JOINT LHipJoint
	{
		OFFSET 0.000000 0.000000 0.000000
		CHANNELS 3 Zrotation Yrotation Xrotation
		JOINT LeftUpLeg
		{
			OFFSET 1.363060 -1.794630 0.839290
			CHANNELS 3 Zrotation Yrotation Xrotation
			JOINT LeftLeg
			{
				OFFSET 2.448110 -6.726130 0.000000
				CHANNELS 3 Zrotation Yrotation Xrotation
				JOINT LeftFoot
				{
					OFFSET 2.562200 -7.039590 0.000000
					CHANNELS 3 Zrotation Yrotation Xrotation
					JOINT LeftToeBase
					{
						OFFSET 0.157640 -0.433110 2.322550
						CHANNELS 3 Zrotation Yrotation Xrotation
						End Site
						{
							OFFSET 0.000000 0.000000 0.000000
						}
					}
				}
			}
		}
	}
	JOINT RHipJoint
	{
		OFFSET 0.000000 0.000000 0.000000
		CHANNELS 3 Zrotation Yrotation Xrotation
		JOINT RightUpLeg
		{
			OFFSET -1.305520 -1.794630 0.839290
			CHANNELS 3 Zrotation Yrotation Xrotation
			JOINT RightLeg
			{
				OFFSET -2.542530 -6.985550 0.000000
				CHANNELS 3 Zrotation Yrotation Xrotation
				JOINT RightFoot
				{
					OFFSET -2.568260 -7.056230 0.000000
					CHANNELS 3 Zrotation Yrotation Xrotation
					JOINT RightToeBase
					{
						OFFSET -0.164730 -0.452590 2.363150
						CHANNELS 3 Zrotation Yrotation Xrotation
						End Site
						{
							OFFSET 0.000000 0.000000 0.000000
						}
					}
				}
			}
		}
	}
}
MOTION
Frames: 33
Frame Time: 0.008333
-8.615164 16.990208 -1.436454 37.723176 87.406223 48.472841 -8.821192 0.898132 5.060713 -14.817768 -9.556531 -31.324184 -2.785139 -0.264905 16.667498 0.187881 0.070978 -3.802158 0.195100 0.000000 -16.427700 11.093409 -5.000018 -0.149131 3.579685 -10.654173 1.937848 0.704699 -2.608844 32.151779 0.078967 28.459199 33.723007 18.620999 0.000000 -68.135800
-8.428856 16.978569 -1.414079 46.949417 87.520144 57.425040 -8.660723 1.077873 5.001286 -15.459173 -9.392751 -30.905979 -2.784382 -0.141864 17.697772 0.183573 0.105945 -3.568376 0.203800 0.000000 -14.927100 11.406901 -4.904611 -0.314038 2.919640 -11.788797 0.892850 0.477316 -2.671115 34.694464 -0.141334 26.705592 35.275318 18.058500 0.000000 -66.392499
-8.246301 16.972616 -1.393120 55.646245 87.525238 65.819577 -8.513695 1.260262 4.951582 -16.039523 -9.283987 -30.323094 -2.787708 -0.037489 18.525281 0.194927 0.189083 -3.520312 0.208200 -0.000000 -13.694300 11.676906 -4.756771 -0.516065 2.308001 -12.906622 -0.141817 0.236971 -2.724169 37.245393 -0.381547 23.829643 36.528826 16.547900 -0.000000 -64.832300
-8.067360 16.972693 -1.374486 63.262762 87.449498 73.110346 -8.398675 1.427155 4.908559 -16.539945 -9.232045 -29.564742 -2.794310 0.044913 19.139455 0.218469 0.306285 -3.645612 0.207299 -0.000000 -12.756800 11.886881 -4.569627 -0.747047 1.766503 -13.960037 -1.152252 -0.005926 -2.774142 39.761621 -0.646356 19.871883 37.303796 14.095900 -0.000000 -63.545900
-7.891732 16.978855 -1.358876 69.548496 87.327774 79.052136 -8.321525 1.566957 4.868942 -16.947732 -9.232822 -28.628340 -2.803181 0.102421 19.531538 0.250642 0.446718 -3.914528 0.200600 -0.000000 -12.119800 12.034473 -4.357582 -0.997443 1.310718 -14.910452 -2.134077 -0.241636 -2.828839 42.213230 -0.936032 15.011465 37.399558 10.858200 0.000000 -62.264900
-7.719162 16.990861 -1.346679 74.448620 87.192469 83.595290 -8.281031 1.675185 4.829396 -17.257293 -9.274176 -27.521090 -2.813089 0.133786 19.696245 0.288392 0.603855 -4.285995 0.188400 0.000000 -11.771000 12.124467 -4.134413 -1.257204 0.951494 -15.725487 -3.088677 -0.462437 -2.896180 44.575065 -1.244351 9.573208 36.654965 7.151000 -0.000001 -60.661600
-7.549198 17.008294 -1.338294 77.975718 87.075481 86.762554 -8.276734 1.752107 4.786379 -17.462967 -9.326377 -26.273745 -2.821986 0.140237 19.645476 0.327770 0.763019 -4.716311 0.171100 -0.000000 -11.678600 12.161478 -3.915205 -1.512646 0.708869 -16.372403 -4.026305 -0.662313 -2.981678 46.817231 -1.560123 3.977587 35.011973 3.395400 -0.000001 -58.594200
-7.381498 17.030406 -1.333637 80.187605 86.994731 88.619549 -8.303911 1.801882 4.737168 -17.572331 -9.365360 -24.914028 -2.828439 0.123827 19.386554 0.366667 0.923318 -5.157303 0.150500 -0.000000 -11.802600 12.154372 -3.711640 -1.752630 0.584408 -16.833368 -4.957587 -0.837354 -3.087372 48.912940 -1.869497 -1.346004 32.512606 0.012200 -0.000000 -55.893800
-7.215654 17.056393 -1.332491 81.092219 86.962013 89.184963 -8.359658 1.830211 4.679098 -17.594430 -9.358111 -23.483479 -2.830905 0.088049 18.941337 0.402524 1.078171 -5.567541 0.128700 0.000000 -12.088100 12.110771 -3.533237 -1.963802 0.582319 -17.094349 -5.898420 -0.984345 -3.209904 50.834210 -2.159938 -6.062595 29.304045 -2.686700 -0.000000 -52.560601
-7.051338 17.085270 -1.334389 80.660128 86.977556 88.438117 -8.439479 1.843669 4.610012 -17.544991 -9.276617 -22.020609 -2.828536 0.036780 18.333463 0.433734 1.225923 -5.912337 0.108400 0.000001 -12.475600 12.039316 -3.384220 -2.135280 0.695167 -17.153431 -6.861454 -1.100517 -3.342000 52.558269 -2.420761 -9.974510 25.590147 -4.549700 -0.000000 -48.652300
-6.888224 17.116004 -1.338646 78.827876 87.030592 86.322244 -8.538123 1.849033 4.528191 -17.444072 -9.096541 -20.560375 -2.821351 -0.025866 17.590504 0.459242 1.365707 -6.167665 0.091600 -0.000000 -12.903500 11.948421 -3.263973 -2.259160 0.906045 -17.020079 -7.854738 -1.183513 -3.474485 54.068651 -2.642885 -13.012984 21.596290 -5.578800 -0.000000 -44.310100
-6.726151 17.147551 -1.344465 75.567409 87.101766 82.809797 -8.649693 1.852540 4.431635 -17.314359 -8.800124 -19.126981 -2.810273 -0.095711 16.740728 0.478447 1.496405 -6.320602 0.080100 0.000001 -13.321000 11.845817 -3.167892 -2.333451 1.187997 -16.718547 -8.876167 -1.231881 -3.599000 55.354664 -2.817664 -15.195815 17.530777 -5.883200 0.000000 -39.680999
-6.564893 17.178971 -1.350979 70.953031 87.165784 77.975675 -8.767914 1.860059 4.320582 -17.178087 -8.378493 -17.742338 -2.797005 -0.168893 15.814908 0.491079 1.615289 -6.369549 0.074800 -0.000000 -13.685901 11.738434 -3.089119 -2.358782 1.511513 -16.281295 -9.923501 -1.245754 -3.708471 56.410598 -2.938602 -16.596458 13.579634 -5.636900 -0.000000 -35.005700
-6.404358 17.209390 -1.357394 65.299571 87.197328 72.130391 -8.886347 1.876429 4.195346 -17.056079 -7.832609 -16.416571 -2.783841 -0.241893 14.842043 0.497219 1.718779 -6.322386 0.075700 -0.000000 -13.976200 11.632460 -3.019618 -2.341115 1.844088 -15.750555 -10.986313 -1.226901 -3.798364 57.232374 -3.001007 -17.308169 9.887406 -5.030700 0.000000 -30.499100
-6.244343 17.238137 -1.362925 59.192638 87.179278 65.857545 -8.998547 1.905610 4.058710 -16.965402 -7.174044 -15.159657 -2.773371 -0.311871 13.852160 0.497020 1.801152 -6.193944 0.082200 0.000000 -14.187900 11.533559 -2.951980 -2.287362 2.157930 -15.170738 -12.058815 -1.178525 -3.866029 57.819588 -3.003528 -17.432888 6.556109 -4.241200 -0.000000 -26.354700
-6.085096 17.264703 -1.367358 53.291668 87.113180 59.803483 -9.103115 1.948146 3.909333 -16.909047 -6.415397 -13.961367 -2.766912 -0.376178 12.870664 0.490266 1.852452 -6.005214 0.092600 -0.000000 -14.333900 11.442503 -2.880951 -2.209628 2.437320 -14.582152 -13.115968 -1.104712 -3.911009 58.166450 -2.949624 -17.080820 3.653129 -3.413900 -0.000000 -22.754500
-5.926438 17.288849 -1.370234 48.170792 87.008259 54.543479 -9.196678 2.004257 3.752823 -16.890916 -5.586348 -12.826442 -2.765980 -0.433618 11.921906 0.477479 1.868175 -5.776233 0.105200 -0.000000 -14.447500 11.361074 -2.802644 -2.114403 2.672399 -14.015740 -14.157162 -1.009885 -3.933300 58.276557 -2.846354 -16.357517 1.193812 -2.644099 -0.000000 -19.761700
-5.768433 17.310454 -1.371610 44.136891 86.884810 50.379271 -9.279326 2.071695 3.592546 -16.906312 -4.719807 -11.743684 -2.770537 -0.483468 11.020063 0.459509 1.847338 -5.525565 0.118300 0.000001 -14.559500 11.287404 -2.714668 -2.010509 2.861530 -13.493837 -15.168786 -0.898116 -3.933780 58.150126 -2.704825 -15.370362 -0.838806 -1.984600 0.000001 -17.391200
-5.610713 17.329651 -1.371419 41.279864 86.764645 47.412876 -9.351778 2.148843 3.436711 -16.947805 -3.845179 -10.734497 -2.780814 -0.525475 10.192548 0.436004 1.779074 -5.273479 0.129600 -0.000000 -14.687100 11.219258 -2.616226 -1.898016 3.015346 -13.024428 -16.166549 -0.772899 -3.912474 57.796027 -2.539248 -14.225795 -2.495256 -1.451500 -0.000000 -15.574900
-5.453260 17.346696 -1.369895 39.494835 86.666637 45.541108 -9.417018 2.232782 3.290061 -17.002677 -2.994192 -9.793979 -2.795190 -0.559806 9.445529 0.407959 1.666110 -5.030881 0.138100 0.000000 -14.863500 11.151898 -2.506871 -1.780118 3.145834 -12.604976 -17.144191 -0.636501 -3.870012 57.217533 -2.364331 -13.020298 -3.848385 -1.036300 -0.000000 -14.177700
-5.296035 17.361876 -1.367311 38.654148 86.603249 44.639782 -9.477237 2.320583 3.156717 -17.060413 -2.197310 -8.916554 -2.811956 -0.587138 8.776635 0.376698 1.516503 -4.801212 0.143501 -0.000000 -15.115000 11.081310 -2.386202 -1.658864 3.263354 -12.226812 -18.096767 -0.490279 -3.807018 56.418779 -2.193653 -11.835608 -4.978883 -0.718500 0.000000 -13.056500
-5.138929 17.375608 -1.363816 38.634953 86.581658 44.592635 -9.535106 2.410349 3.040938 -17.110706 -1.474263 -8.104528 -2.829554 -0.608299 8.183655 0.342904 1.334925 -4.583943 0.145900 0.000000 -15.453100 11.003598 -2.255049 -1.531883 3.379709 -11.871916 -19.025011 -0.334965 -3.723621 55.405024 -2.038739 -10.736838 -5.965865 -0.474900 -0.000001 -12.052000
-4.981953 17.388217 -1.359605 39.357098 86.602829 45.322457 -9.592851 2.499975 2.944204 -17.146417 -0.838554 -7.352505 -2.846543 -0.624419 7.654178 0.307448 1.130243 -4.371836 0.145900 -0.000001 -15.884401 10.915624 -2.114427 -1.397508 3.500582 -11.519972 -19.923048 -0.171299 -3.620189 54.180398 -1.907889 -9.768303 -6.871257 -0.285100 0.000000 -11.055800
-4.825144 17.400024 -1.354728 40.784032 86.663131 46.793927 -9.652404 2.587805 2.866014 -17.163179 -0.293081 -6.653991 -2.861897 -0.636667 7.173451 0.270795 0.909388 -4.154656 0.144201 0.000000 -16.407100 10.815203 -1.966208 -1.253107 3.627728 -11.149603 -20.783531 -0.000504 -3.497129 52.749014 -1.806230 -8.954873 -7.733177 -0.133500 0.000001 -10.017600
-4.668639 17.411205 -1.349199 42.928148 86.754730 49.017642 -9.715025 2.672427 2.803968 -17.159042 0.168156 -6.000613 -2.875086 -0.646246 6.725265 0.233082 0.677007 -3.921599 0.141400 0.000000 -17.008200 10.701532 -1.812782 -1.095632 3.757754 -10.740527 -21.598474 0.175237 -3.355089 51.116577 -1.735886 -8.304185 -8.563786 -0.009300 -0.000001 -8.939700
-4.512582 17.421844 -1.342922 45.821258 86.867467 52.021849 -9.781221 2.752160 2.752946 -17.133562 0.557568 -5.379981 -2.885847 -0.654276 6.291686 0.194224 0.436278 -3.660629 0.137800 0.000001 -17.691101 10.575207 -1.657014 -0.923704 3.884069 -10.277061 -22.357740 0.352678 -3.195353 49.290564 -1.696115 -7.810007 -9.347545 0.093200 -0.000000 -7.905700
-4.357191 17.431911 -1.335671 49.528956 86.989317 55.865307 -9.849819 2.826111 2.708235 -17.088927 0.892545 -4.781102 -2.894549 -0.661817 5.859895 0.153906 0.186493 -3.365558 0.133200 -0.000000 -18.429700 10.438969 -1.502395 -0.735025 3.996836 -9.750117 -23.054964 0.528039 -3.019594 47.283987 -1.683605 -7.454805 -10.056868 0.176700 0.000000 -6.974901
-4.202695 17.441248 -1.327264 54.076991 87.107668 60.565864 -9.917794 2.893373 2.664063 -17.028155 1.190826 -4.190153 -2.901744 -0.669743 5.418734 0.111855 -0.073720 -3.032669 0.126900 0.000001 -19.210800 10.297591 -1.352219 -0.529188 4.086134 -9.157850 -23.685406 0.697365 -2.830152 45.114148 -1.692671 -7.213396 -10.653714 0.240500 -0.000000 -6.222000
-4.049227 17.449568 -1.317459 59.385408 87.210773 66.035674 -9.980542 2.953346 2.614449 -16.952864 1.468497 -3.593749 -2.907989 -0.678553 4.959853 0.067911 -0.345899 -2.660545 0.118200 -0.000000 -20.047600 10.157579 -1.209001 -0.307689 4.144911 -8.505080 -24.247076 0.857104 -2.629654 42.802554 -1.715694 -7.055686 -11.098800 0.281400 -0.000001 -5.717100
-3.896946 17.456562 -1.306094 65.225576 87.288471 72.038049 -10.032299 3.006728 2.555182 -16.865818 1.737519 -2.980161 -2.914039 -0.688231 4.479769 0.022174 -0.631266 -2.252326 0.106300 0.000000 -20.947100 10.026571 -1.073876 -0.072802 4.168559 -7.802822 -24.743354 1.004545 -2.420459 40.376058 -1.743670 -6.947679 -11.362215 0.295600 -0.000000 -5.477900
-3.745929 17.461923 -1.292924 71.221370 87.332657 78.189653 -10.067931 3.055693 2.484653 -16.771512 2.006779 -2.344138 -2.921123 -0.698328 3.982695 -0.025070 -0.932222 -1.819503 0.090000 0.000001 -21.877200 9.911633 -0.946695 0.173272 4.155095 -7.066430 -25.183483 1.138128 -2.204310 37.866269 -1.767088 -6.852964 -11.430433 0.280500 -0.000000 -5.446200
-3.596100 17.465311 -1.278019 76.873339 87.341925 83.987273 -10.085642 3.102236 2.401519 -16.672434 2.277421 -1.680578 -2.929568 -0.707731 3.471117 -0.073026 -1.245337 -1.366570 0.068700 0.000000 -22.889000 9.816576 -0.826334 0.425349 4.107553 -6.312250 -25.577210 1.257488 -1.982853 35.302418 -1.776627 -6.737260 -11.293929 0.234399 0.000000 -5.620700
-3.447311 17.466476 -1.261335 81.759941 87.318277 89.007274 -10.086328 3.148618 2.307258 -16.572955 2.548293 -0.992320 -2.939924 -0.715345 2.956418 -0.120902 -1.568945 -0.905706 0.042000 0.000000 -23.967899 9.742184 -0.712252 0.679879 4.030527 -5.557201 -25.939071 1.364049 -1.757665 32.714170 -1.764234 -6.568482 -10.961321 0.159199 -0.000000 -5.926000
